<svg width="1121" height="532" viewBox="0 0 1121 532" fill="none" xmlns="http://www.w3.org/2000/svg">
<g clip-path="url(#clip0_4_162)">
<path d="M700.06 0.690989C710.695 -0.267741 737.14 0.0584238 748.442 0.295481C783.587 1.03212 822.325 -4.43352 853.607 14.0885C872.312 24.9631 885.76 43.0025 890.853 64.0308C896.755 87.7178 894.115 116.869 881.005 137.592C866.117 161.12 848.162 170.892 822.422 177.126C843.744 187.372 845.409 202.732 853.404 223.628L877.517 287.418C881.844 298.915 886.494 312.457 891.587 323.534C898.742 339.09 904.202 340.943 918.707 345.981C914.837 346.325 910.869 346.531 906.984 346.499C886.329 346.328 865.165 347.197 844.555 346.164C848.095 344.632 856.479 342.848 857.529 339.15C860.574 328.347 850.87 308.776 847.067 298.836L802.157 181.176C781.442 184.151 757.428 194.293 751.442 215.973C746.515 233.802 749.957 260.763 749.117 279.653C749.492 294.493 748.247 309.585 749.274 324.39C750.384 340.382 755.327 341.9 768.489 345.925C760.742 346.856 747.729 346.661 739.689 346.661C725.477 346.751 711.265 346.585 697.06 346.163C703.127 343.492 713.2 341.59 714.317 333.646C717.175 313.304 716.042 289.857 716.042 269.361L716.027 158L716.058 70.1549C716.073 53.9773 716.335 37.4152 715.697 21.2662C715.48 15.757 713.574 11.2463 710.829 6.55329C706.412 3.83785 702.182 4.11399 700.06 0.690989ZM814.239 8.8697C798.527 5.28547 766.292 6.75411 749.027 6.8824L749.013 203.115C763.69 183.111 779.065 178.13 802.893 174.315C811.855 172.88 819.235 171.544 827.425 167.171C843.797 157.475 853.427 141.462 857.68 123.449C866.86 84.5488 861.812 19.7203 814.239 8.8697Z" fill="#130907"/>
<path d="M66.0186 0.622092C78.7573 -0.452171 103.254 0.320734 116.926 0.283224C137.88 68.7291 160.795 137.755 182.275 206.199L206.547 283.385C210.923 297.238 215.137 311.783 220.372 325.306C225.886 339.546 230.642 340.773 243.988 346.155C234.303 346.963 220.795 346.651 210.804 346.677C198.65 346.709 183.594 347.07 171.771 345.902C182.951 341.905 190.138 341.779 186.168 326.48C178.248 295.965 166.868 265.65 158.236 235.362C150.831 235.446 143.288 235.364 135.87 235.358L60.7031 235.359C54.8306 262.367 45.7657 289.748 40.6484 316.947C36.8107 337.348 46.5498 340.496 62.9883 345.971C53.1565 347.064 10.3133 347.132 0 346.003C15.087 339.329 23.9786 339.273 30.9004 321.224C35.2983 309.757 37.7322 298.452 40.7539 286.613L54.6162 232.103L100.175 53.4229C94.8551 35.33 90.8745 13.5699 73.2998 5.01858C70.1386 3.47999 67.5245 3.53353 66.0186 0.622092ZM103.43 66.0908C93.0032 112.526 79.5818 158.812 68.4541 205.133C66.6174 212.776 64.5071 221.284 62.2158 228.793L114.882 228.824C128.528 228.911 142.175 228.878 155.821 228.724C150.369 211.699 106.518 68.8616 103.43 66.0908Z" fill="#130907"/>
<path d="M66.0186 0.622092C78.7573 -0.452171 103.254 0.320734 116.926 0.283224C137.88 68.7291 160.795 137.755 182.275 206.199L206.547 283.385C210.923 297.238 215.137 311.783 220.372 325.306C225.886 339.546 230.642 340.773 243.988 346.155C234.303 346.963 220.795 346.651 210.804 346.677C198.65 346.709 183.594 347.07 171.771 345.902C182.951 341.905 190.138 341.779 186.168 326.48C178.248 295.965 166.868 265.65 158.236 235.362C150.831 235.446 143.288 235.364 135.87 235.358L60.7031 235.359C54.8306 262.367 45.7657 289.748 40.6484 316.947C36.8107 337.348 46.5498 340.496 62.9883 345.971C53.1565 347.064 10.3133 347.132 0 346.003C15.087 339.329 23.9786 339.273 30.9004 321.224C35.2983 309.757 37.7322 298.452 40.7539 286.613L54.6162 232.103L100.175 53.4229C94.8551 35.33 90.8745 13.5699 73.2998 5.01858C70.1386 3.47999 67.5245 3.53353 66.0186 0.622092ZM103.43 66.0908C93.0032 112.526 79.5818 158.812 68.4541 205.133C66.6174 212.776 64.5071 221.284 62.2158 228.793L114.882 228.824C128.528 228.911 142.175 228.878 155.821 228.724C150.369 211.699 106.518 68.8616 103.43 66.0908Z" fill="#130907"/>
<path d="M935.995 0.68309C950.087 -0.606475 978.827 0.324507 994.015 0.331258L1112 0.260746C1111.96 8.48575 1112.97 50.6513 1111.36 55.748L1109.85 56.1426C1108.11 54.2972 1107.92 50.3175 1106.69 47.1944C1102.82 37.298 1099.31 29.2748 1091.7 21.5067C1085.96 15.5652 1078.72 11.2974 1070.74 9.16317C1059.11 5.95239 1041.04 6.81285 1028.53 6.84435C1013.83 6.93888 999.13 6.93437 984.43 6.83009L984.4 170.772C997.57 170.824 1010.93 170.792 1024.31 170.848C1044.11 170.93 1056.46 165.324 1063.64 145.635C1064.9 142.187 1064.54 138.292 1066.47 136.321L1068.2 136.624C1069.61 138.845 1069.48 209.311 1068.07 216.758C1063.18 207.3 1062.5 194.974 1054.41 187.31C1039.31 173.014 1004.66 177.386 984.437 177.487L984.422 222.806L984.392 340.061L1030.67 340.128C1065.35 340.191 1092.16 340.869 1110.48 304.645C1112.61 300.437 1114.82 292.174 1117.51 289.013L1118.61 289.136C1120.82 294.506 1117.54 336.884 1117.01 346.669C1065.09 345.875 1012.79 347.11 960.827 346.661C951.58 346.581 942.317 346.888 933.1 345.904C943.367 342.621 950.417 340.165 951.025 327.562C952.022 306.948 951.58 286.139 951.58 265.481L951.55 150.018L951.542 61.4952C951.542 45.9821 952.225 30.0475 950.38 14.6695C949.165 4.53229 939.272 5.14668 935.995 0.68309Z" fill="#130907"/>
<path d="M257.088 0.385935L429.532 0.346924C425.668 11.9545 417.603 29.8854 412.783 41.4705L381.623 116.24L288.444 340.126L337.425 340.142C353.769 340.156 373.132 341.45 388.763 336.665C404.259 331.92 416.802 317.941 422.839 303.309C425.379 297.152 427.136 290.561 430.197 284.533L430.603 283.745C431.718 289.455 428.636 337.695 428.227 346.616L251.568 346.598L393.173 6.88701C370.94 6.84875 313.187 4.26438 295.349 10.2381C280.119 15.3386 268.545 27.0827 262.563 41.8726C260.133 47.88 258.612 54.2138 255.675 60.0165L255.267 60.8079C253.884 53.6332 256.626 10.0783 257.088 0.385935Z" fill="#130907"/>
<path d="M462.779 0.61556C469.21 -0.0566038 484.715 0.211956 491.808 0.271971C503.504 0.370995 518.855 -0.185644 530.258 0.756586C517.305 6.46548 512.111 5.00863 511.382 22.9658C510.726 39.1202 511.052 55.3047 511.064 71.4711L511.055 168.672L511.047 241.217C511.046 265.222 508.71 294.279 521.298 315.068C546.7 357.02 615.355 348.218 636.97 306.751C652.555 276.855 648.685 244.894 648.655 212.664L648.692 124.184L648.587 63.5912C648.557 43.7046 653.305 8.84882 627.287 3.78809C625.21 3.38524 624.04 3.25321 623.012 1.50304C625.15 -0.388925 639.64 0.312482 643.457 0.352992C655.735 0.307231 670.165 -0.0596006 682.21 0.671078C671.875 5.14742 660.152 6.21194 657.422 19.6365C653.912 36.8847 655.255 58.4862 655.27 76.1823L655.33 201.185C655.337 230.043 658.165 273.627 648.145 299.84C641.057 318.68 626.71 333.889 608.312 342.055C585.94 352.053 555.43 351.376 532.801 342.804C509.652 334.425 489.667 314.125 483.191 289.952C475.397 260.865 478.286 222.603 478.279 192.289L478.218 59.8268C478.271 47.2207 479.532 23.2853 476.156 11.3267C474.876 6.79556 467.975 3.99138 463.626 2.48127L462.779 0.61556Z" fill="#130907"/>
<path d="M797.851 426.556C826.089 422.635 852.167 442.321 856.135 470.554C860.102 498.787 840.467 524.904 812.252 528.925C783.962 532.954 757.771 513.257 753.789 484.954C749.806 456.649 769.554 430.487 797.851 426.556ZM808.689 527.238C860.942 518.159 852.804 426.664 803.17 428.219C750.197 434.345 753.917 528.573 808.689 527.238Z" fill="#130907"/>
<path d="M927.678 428.346C933.146 426.563 964.389 427.228 970.382 429.862C984.894 436.237 989.109 443.098 988.172 458.025C987.084 475.192 968.642 478.099 967.502 481.132C978.519 489.031 980.245 514.104 989.71 524.364C991.067 525.827 994.225 527.095 996.093 527.891C990.49 527.741 977.065 528.775 972.805 527.357C974.327 526.217 974.507 526.224 975.542 524.566C975.751 520.506 962.11 489.293 959.95 481.238C961.742 480.895 962.455 480.656 964.18 480.051L964.104 478.71C968.297 476.546 970.547 475.326 973.06 471.246C980.612 459.003 979.517 435.01 963.189 430.36C958.232 428.949 948.655 429.428 943.112 429.486L943.149 466.536C943.149 471.989 942.872 482.06 943.367 487.205L945.205 487.851C943.18 492.909 943.128 494.893 943.098 500.39C943.068 506.842 942.745 513.273 943.135 519.735C943.435 524.634 943.93 524.342 947.402 527.327C945.002 528.077 930.393 528.318 928.397 527.29C929.148 526.247 931.449 523.082 931.479 521.679C932.124 492.453 932.057 462.607 931.375 433.384C931.315 430.544 929.418 429.638 927.678 428.346ZM950.681 483.675C950.4 483.817 950.122 483.969 949.845 484.13C950.122 483.969 950.4 483.817 950.681 483.675Z" fill="#130907"/>
<path d="M943.367 487.205C948.625 480.567 956.365 479.773 964.105 478.71L964.18 480.051C962.455 480.656 961.742 480.894 959.95 481.238C953.597 482.149 949.907 483.063 945.205 487.85L943.367 487.205Z" fill="#130907"/>
<path d="M525.01 427.575C540.13 428.187 558.453 425.201 572.155 431.74C585.288 438.004 589.449 454.535 582.564 466.923C578.049 475.048 572.102 477.796 563.567 480.25C579.197 490.964 574.51 520.073 593.395 527.898C589.892 527.868 573.879 528.46 571.922 527.454C572.409 522.811 573.347 523.276 571.412 518.686L571.06 517.863C566.095 505.673 561.407 493.375 556.989 480.975C549.617 482.537 542.74 484.622 540.947 492.954C539.905 497.806 539.852 522.12 541.885 525.384C543.28 526.277 543.745 526.285 544.428 527.613C540.603 528.355 529.207 527.942 525.167 527.477C525.358 527.274 525.544 527.072 525.739 526.885C527.181 525.475 527.902 524.476 528.513 522.503C529.971 517.774 529.592 446.157 529.216 437.942C529.102 435.444 529.081 432.996 527.917 430.726C526.501 429.551 525.912 429.218 525.01 427.575ZM553.412 429.474C549.16 429.565 544.788 429.448 540.513 429.484L540.52 486.377C552.084 477.395 556.518 481.505 565.308 476.917C580.765 463.245 578.29 428.94 553.412 429.474Z" fill="#130907"/>
<path d="M1084.83 426.589C1095.71 425.643 1099.33 428.036 1109.15 431.721C1110.65 432.279 1112.48 429.19 1115.17 429.114C1116.39 431.279 1115.59 449.196 1115.52 452.801C1113.17 445.067 1111.16 439.005 1104.83 433.572C1100.25 429.708 1094.33 427.815 1088.37 428.308C1083.52 428.712 1079.71 430.303 1076.59 434.123C1066.01 446.435 1079.75 459.236 1091 465.968C1110.72 477.768 1130.99 495.529 1114.04 519.773C1109.15 526.757 1097.72 528.843 1089.35 529.443C1078.9 528.408 1076.31 525.115 1067.21 523.142C1064.75 523.434 1064.12 524.207 1062.19 525.775L1061.51 526.337L1060.91 525.85C1060.84 516.68 1060.64 507.265 1061.07 498.124L1061.36 499.352C1063.83 509.915 1067.75 517.43 1077.17 523.427C1085.74 528.986 1102.04 529.751 1107.08 518.949C1123.64 483.533 1062.37 481.379 1063.46 449.32C1063.95 435.177 1072.22 429.672 1084.83 426.589Z" fill="#130907"/>
<path d="M180.44 509.51C179.358 486.01 180.807 461.312 180.587 437.709C180.557 434.353 176.133 430.626 173.844 428.615L173.857 427.913C178.625 427.786 183.395 427.799 188.162 427.952C187.339 428.985 185.199 430.468 184.04 431.339C182.381 434.011 182.418 436.993 182.129 440.162C182.979 456.506 182.014 476.155 182.359 492.836C182.507 499.986 182.688 525.887 181.502 531.274C176.232 525.482 167.213 510.907 162.547 503.788C152.386 488.203 142.092 472.705 131.666 457.296C129.998 454.831 122.664 443.702 120.78 442.338L118.823 441.531C118.067 435.957 112.449 428.579 112.684 427.895C117.014 427.835 121.345 427.808 125.676 427.815C142.701 452.335 158.286 477.967 175.298 502.512C176.978 504.936 178.451 507.309 180.44 509.51Z" fill="#130907"/>
<path d="M180.44 509.51C179.358 486.01 180.807 461.312 180.587 437.709C180.556 434.353 176.133 430.626 173.844 428.615L173.857 427.912C178.624 427.786 183.395 427.799 188.162 427.952C187.339 428.985 185.199 430.468 184.04 431.339C182.38 434.011 182.418 436.993 182.129 440.162C180.146 445.201 182.865 499.941 181.289 509.344L180.44 509.51Z" fill="#130907"/>
<path d="M660.729 427.64C663.707 427.645 679.014 427.36 680.702 428.542L679.03 430.248C674.732 442.701 678.377 472.718 677.259 487.238C676.442 497.783 677.559 511.435 677.642 522.233C677.664 524.882 680.259 526.224 682.187 527.665C677.492 527.815 665.057 528.565 661.12 527.245C662.372 526.397 662.889 526.022 664.067 525.009C667.427 513.78 665.132 450.616 665.214 433.968C665.237 430.737 663.219 429.63 660.729 427.64Z" fill="#130907"/>
<path d="M39.3722 427.616L40.1642 428.262C39.2492 428.831 38.4024 429.347 37.7079 430.192C34.1289 434.549 35.3072 506.034 35.9514 517.186C36.2649 522.609 36.4449 523.847 40.4507 527.433C36.8679 528.258 25.5542 527.913 21.2237 527.875L20.2884 527.56C22.7117 525.572 24.4007 522.219 24.4097 519.013C24.4929 490.728 24.5852 462.38 24.2724 434.102C24.2372 430.967 22.3967 430.018 20.2314 428.282C22.7094 427.483 35.8899 427.636 39.3722 427.616Z" fill="#130907"/>
<path d="M292.594 427.969L294.071 427.99L296.471 429.679C297.05 443.99 296.461 458.547 296.644 472.893C296.836 487.957 296.303 503.093 296.555 518.143C296.587 520.081 298.622 524.927 299.393 526.825L298.416 527.65C294.374 527.958 284.218 528.385 280.533 527.448C283.507 525.64 284.981 524.462 285.029 520.643C285.15 510.938 285.08 501.211 285.081 491.497L285.08 429.395C288.35 429.131 289.402 429.124 292.594 427.969Z" fill="#130907"/>
<path d="M410.4 527.845C407.34 527.883 397.32 528.318 395.162 527.32C396.346 525.505 399.491 520.951 399.458 519.132C399.309 510.88 399.283 502.086 399.272 493.876L399.23 455.634C399.242 448.145 399.586 440.029 398.635 432.59C398.354 430.402 397.077 429.648 395.294 428.534L395.482 428.048C399.665 427.519 403.079 427.735 407.256 427.879L410.402 429.715C410.546 436.783 409.7 473.007 411.173 476.713L411.185 478.317C409.907 482.205 410.334 520.943 410.664 526.285L410.4 527.845Z" fill="#130907"/>
<path d="M118.824 441.531L120.78 442.338C120.072 446.509 120.436 464.522 120.418 469.715C120.364 485.558 120.474 501.7 120.296 517.581C120.249 521.829 123.388 524.432 126.279 527.282C124.089 528.235 114.08 528.04 111.38 527.432L111.981 527.057C115.415 524.904 117.777 523.517 118.15 518.752C120.091 493.916 116.631 466.029 118.824 441.531Z" fill="#130907"/>
<path d="M410.664 526.284C432.568 526.412 443.649 529.878 452.882 507.247C452.665 514.111 452.493 520.973 452.367 527.845C438.57 527.897 424.145 528.145 410.4 527.845L410.664 526.284Z" fill="#130907"/>
<path d="M407.256 427.879C421.601 427.695 435.948 427.667 450.294 427.795L450.292 447.377C442.87 425.74 431.164 428.089 410.402 429.715L407.256 427.879Z" fill="#130907"/>
<path d="M254.349 427.69C267.073 427.918 279.882 427.36 292.593 427.969C289.401 429.124 288.35 429.131 285.079 429.395C265.56 429.235 260.306 428.33 253.677 447.99C254.015 441.228 254.239 434.46 254.349 427.69Z" fill="#130907"/>
<path d="M294.07 427.99C305.137 427.693 316.209 427.635 327.279 427.815L327.308 447.638C321.697 428.542 315.164 428.507 296.471 429.679L294.07 427.99Z" fill="#130907"/>
<path d="M411.173 476.713C425.98 476.827 431.165 479.28 436.612 463.815C436.544 472.842 436.418 481.869 436.235 490.894C431.053 476.023 424.959 478.518 411.185 478.317L411.173 476.713Z" fill="#130907"/>
</g>
<defs>
<clipPath id="clip0_4_162">
<rect width="1121" height="532" fill="white"/>
</clipPath>
</defs>
</svg>
